<?xml version="1.0" encoding="UTF-8"?>
<svg width="32" height="32" viewBox="0 0 32 32" fill="none" xmlns="http://www.w3.org/2000/svg">
  <path d="M6 26C6 26 8 14 16 10C24 14 26 26 26 26C22 28 18 28 16 26C14 28 10 28 6 26Z" fill="#22c55e"/>
  <path d="M16 10C16 10 14 16 12 20C10 18 8 16 6 26" stroke="#16a34a" stroke-width="1.5" fill="none"/>
  <path d="M16 10C16 10 18 16 20 20C22 18 24 16 26 26" stroke="#16a34a" stroke-width="1.5" fill="none"/>
  <line x1="16" y1="10" x2="16" y2="26" stroke="#16a34a" stroke-width="2"/>
</svg>